<?xml version="1.0" standalone="no"?>
<!DOCTYPE svg PUBLIC "-//W3C//DTD SVG 20010904//EN"
 "http://www.w3.org/TR/2001/REC-SVG-20010904/DTD/svg10.dtd">
<svg version="1.0" xmlns="http://www.w3.org/2000/svg"
 width="400.000000pt" height="400.000000pt" viewBox="0 0 400.000000 400.000000"
 preserveAspectRatio="xMidYMid meet">
<metadata>
Created by potrace 1.11, written by Peter Selinger 2001-2013
</metadata>
<g transform="translate(0.000000,400.000000) scale(0.100000,-0.100000)"
fill="#000000" stroke="none">
<path d="M649 3371 c-1 -52 -1 -370 0 -417 l1 -31 653 -1 c358 0 658 -1 665
-1 9 -1 12 -91 12 -417 0 -329 3 -415 13 -412 6 3 41 14 77 26 36 11 128 41
205 65 584 188 1153 365 1230 383 54 12 229 63 220 63 -5 0 -48 -6 -95 -15
-47 -8 -132 -24 -190 -34 -213 -38 -336 -61 -484 -91 -83 -17 -162 -33 -176
-35 -14 -2 -37 -7 -52 -10 -15 -3 -29 -5 -30 -5 -2 0 -38 -9 -80 -18 l-78 -18
0 507 0 507 -945 0 -945 0 -1 -46z"/>
<path d="M3730 2553 c-56 -25 -56 -25 -500 -198 -234 -91 -438 -172 -455 -179
-16 -8 -97 -40 -180 -71 -175 -68 -548 -217 -685 -273 -52 -22 -217 -89 -366
-150 -523 -214 -790 -333 -841 -376 -101 -85 -75 -272 58 -421 234 -261 502
-382 859 -386 450 -6 779 227 885 626 26 97 28 123 32 445 3 179 8 328 11 331
10 9 77 46 239 130 76 40 143 75 148 79 6 4 60 33 120 65 61 32 142 74 180 95
39 21 178 95 310 165 132 70 242 130 244 131 11 10 -28 1 -59 -13z m-1751
-1073 c-2 -142 -9 -184 -49 -266 -78 -161 -248 -221 -476 -170 -40 9 -169 66
-221 99 l-53 33 33 17 c48 25 251 133 342 182 44 23 123 65 175 93 52 28 129
69 170 91 41 22 76 41 78 41 2 0 2 -54 1 -120z"/>
</g>
</svg>
